<?xml version="1.0" encoding="UTF-8" standalone="no"?>
<!DOCTYPE svg PUBLIC "-//W3C//DTD SVG 1.1//EN"
 "http://www.w3.org/Graphics/SVG/1.1/DTD/svg11.dtd">
<!-- Generated by graphviz version 2.38.0 (20140413.2041)
 -->
<!-- Title: G Pages: 1 -->
<svg width="247pt" height="528pt"
 viewBox="0.00 0.00 247.00 528.00" xmlns="http://www.w3.org/2000/svg" xmlns:xlink="http://www.w3.org/1999/xlink">
<g id="graph0" class="graph" transform="scale(1 1) rotate(0) translate(4 524)">
<title>G</title>
<polygon fill="white" stroke="none" points="-4,4 -4,-524 243,-524 243,4 -4,4"/>
<g id="clust1" class="cluster"><title>cluster_Global</title>
<path fill="none" stroke="gray" d="M20,-8C20,-8 219,-8 219,-8 225,-8 231,-14 231,-20 231,-20 231,-500 231,-500 231,-506 225,-512 219,-512 219,-512 20,-512 20,-512 14,-512 8,-506 8,-500 8,-500 8,-20 8,-20 8,-14 14,-8 20,-8"/>
<text text-anchor="middle" x="119.5" y="-499.2" font-family="Times New Roman,serif" font-size="11.00" fill="gray">Global</text>
</g>
<!-- \\issue -->
<g id="node1" class="node"><title>\\issue</title>
<polygon fill="none" stroke="black" points="210,-484 156,-484 156,-448 210,-448 210,-484"/>
<text text-anchor="middle" x="183" y="-463.2" font-family="Times New Roman,serif" font-size="11.00">issue</text>
</g>
<!-- \\CP -->
<g id="node2" class="node"><title>\\CP</title>
<polygon fill="none" stroke="black" points="210,-430 156,-430 156,-394 210,-394 210,-430"/>
<text text-anchor="middle" x="183" y="-409.2" font-family="Times New Roman,serif" font-size="11.00">CP</text>
</g>
<!-- \\time -->
<g id="node3" class="node"><title>\\time</title>
<polygon fill="none" stroke="black" points="210,-376 156,-376 156,-340 210,-340 210,-376"/>
<text text-anchor="middle" x="183" y="-355.2" font-family="Times New Roman,serif" font-size="11.00">time</text>
</g>
<!-- \\message -->
<g id="node4" class="node"><title>\\message</title>
<polygon fill="none" stroke="black" points="71,-268 16,-268 16,-232 71,-232 71,-268"/>
<text text-anchor="middle" x="43.5" y="-247.2" font-family="Times New Roman,serif" font-size="11.00">message</text>
</g>
<!-- \\page -->
<g id="node5" class="node"><title>\\page</title>
<polygon fill="none" stroke="black" points="210,-322 156,-322 156,-286 210,-286 210,-322"/>
<text text-anchor="middle" x="183" y="-301.2" font-family="Times New Roman,serif" font-size="11.00">page</text>
</g>
<!-- \\collabmessage -->
<g id="node6" class="node"><title>\\collabmessage</title>
<polygon fill="none" stroke="black" points="223,-268 143,-268 143,-232 223,-232 223,-268"/>
<text text-anchor="middle" x="183" y="-247.2" font-family="Times New Roman,serif" font-size="11.00">collabmessage</text>
</g>
<!-- \\collabmessage&#45;&gt;\\message -->
<g id="edge1" class="edge"><title>\\collabmessage&#45;&gt;\\message</title>
<path fill="none" stroke="black" d="M142.966,-250C123.672,-250 100.513,-250 81.5029,-250"/>
<polygon fill="none" stroke="black" points="81.4196,-246.5 71.4196,-250 81.4196,-253.5 81.4196,-246.5"/>
</g>
<!-- \\collab -->
<g id="node7" class="node"><title>\\collab</title>
<polygon fill="none" stroke="black" points="210,-214 156,-214 156,-178 210,-178 210,-214"/>
<text text-anchor="middle" x="183" y="-193.2" font-family="Times New Roman,serif" font-size="11.00">collab</text>
</g>
<!-- \\log -->
<g id="node8" class="node"><title>\\log</title>
<polygon fill="none" stroke="black" points="210,-160 156,-160 156,-124 210,-124 210,-160"/>
<text text-anchor="middle" x="183" y="-139.2" font-family="Times New Roman,serif" font-size="11.00">log</text>
</g>
<!-- \\mysqlConn -->
<g id="node9" class="node"><title>\\mysqlConn</title>
<polygon fill="none" stroke="black" points="215.5,-106 150.5,-106 150.5,-70 215.5,-70 215.5,-106"/>
<text text-anchor="middle" x="183" y="-85.2" font-family="Times New Roman,serif" font-size="11.00">mysqlConn</text>
</g>
<!-- \\user -->
<g id="node10" class="node"><title>\\user</title>
<polygon fill="none" stroke="black" points="210,-52 156,-52 156,-16 210,-16 210,-52"/>
<text text-anchor="middle" x="183" y="-31.2" font-family="Times New Roman,serif" font-size="11.00">user</text>
</g>
</g>
</svg>
