<?xml version="1.0" encoding="UTF-8" standalone="no"?>
<!DOCTYPE svg PUBLIC "-//W3C//DTD SVG 1.1//EN"
 "http://www.w3.org/Graphics/SVG/1.1/DTD/svg11.dtd">
<!-- Generated by graphviz version 2.38.0 (20140413.2041)
 -->
<!-- Title: G Pages: 1 -->
<svg width="247pt" height="420pt"
 viewBox="0.00 0.00 247.00 420.00" xmlns="http://www.w3.org/2000/svg" xmlns:xlink="http://www.w3.org/1999/xlink">
<g id="graph0" class="graph" transform="scale(1 1) rotate(0) translate(4 416)">
<title>G</title>
<polygon fill="white" stroke="none" points="-4,4 -4,-416 243,-416 243,4 -4,4"/>
<g id="clust1" class="cluster"><title>cluster_Global</title>
<path fill="none" stroke="gray" d="M20,-8C20,-8 219,-8 219,-8 225,-8 231,-14 231,-20 231,-20 231,-392 231,-392 231,-398 225,-404 219,-404 219,-404 20,-404 20,-404 14,-404 8,-398 8,-392 8,-392 8,-20 8,-20 8,-14 14,-8 20,-8"/>
<text text-anchor="middle" x="119.5" y="-391.2" font-family="Times New Roman,serif" font-size="11.00" fill="gray">Global</text>
</g>
<!-- \\collab -->
<g id="node1" class="node"><title>\\collab</title>
<polygon fill="none" stroke="black" points="210,-376 156,-376 156,-340 210,-340 210,-376"/>
<text text-anchor="middle" x="183" y="-355.2" font-family="Times New Roman,serif" font-size="11.00">collab</text>
</g>
<!-- \\collabmessage -->
<g id="node2" class="node"><title>\\collabmessage</title>
<polygon fill="none" stroke="black" points="223,-322 143,-322 143,-286 223,-286 223,-322"/>
<text text-anchor="middle" x="183" y="-301.2" font-family="Times New Roman,serif" font-size="11.00">collabmessage</text>
</g>
<!-- \\message -->
<g id="node4" class="node"><title>\\message</title>
<polygon fill="none" stroke="black" points="71,-322 16,-322 16,-286 71,-286 71,-322"/>
<text text-anchor="middle" x="43.5" y="-301.2" font-family="Times New Roman,serif" font-size="11.00">message</text>
</g>
<!-- \\collabmessage&#45;&gt;\\message -->
<g id="edge1" class="edge"><title>\\collabmessage&#45;&gt;\\message</title>
<path fill="none" stroke="black" d="M142.966,-304C123.672,-304 100.513,-304 81.5029,-304"/>
<polygon fill="none" stroke="black" points="81.4196,-300.5 71.4196,-304 81.4196,-307.5 81.4196,-300.5"/>
</g>
<!-- \\CP -->
<g id="node3" class="node"><title>\\CP</title>
<polygon fill="none" stroke="black" points="210,-268 156,-268 156,-232 210,-232 210,-268"/>
<text text-anchor="middle" x="183" y="-247.2" font-family="Times New Roman,serif" font-size="11.00">CP</text>
</g>
<!-- \\page -->
<g id="node5" class="node"><title>\\page</title>
<polygon fill="none" stroke="black" points="210,-214 156,-214 156,-178 210,-178 210,-214"/>
<text text-anchor="middle" x="183" y="-193.2" font-family="Times New Roman,serif" font-size="11.00">page</text>
</g>
<!-- \\time -->
<g id="node6" class="node"><title>\\time</title>
<polygon fill="none" stroke="black" points="210,-160 156,-160 156,-124 210,-124 210,-160"/>
<text text-anchor="middle" x="183" y="-139.2" font-family="Times New Roman,serif" font-size="11.00">time</text>
</g>
<!-- \\user -->
<g id="node7" class="node"><title>\\user</title>
<polygon fill="none" stroke="black" points="210,-106 156,-106 156,-70 210,-70 210,-106"/>
<text text-anchor="middle" x="183" y="-85.2" font-family="Times New Roman,serif" font-size="11.00">user</text>
</g>
<!-- \\mysqlConn -->
<g id="node8" class="node"><title>\\mysqlConn</title>
<polygon fill="none" stroke="black" points="215.5,-52 150.5,-52 150.5,-16 215.5,-16 215.5,-52"/>
<text text-anchor="middle" x="183" y="-31.2" font-family="Times New Roman,serif" font-size="11.00">mysqlConn</text>
</g>
</g>
</svg>
